<?xml version="1.0" encoding="UTF-8" standalone="no"?>
<svg
   version="1.1"
   width="808.41736"
   height="283.26001"
   viewBox="0 0 808.41736 283.26001"
>
   <g transform="matrix(1.3333333,0,0,-1.3333333,0,283.26)">
      <g transform="translate(234.2344,187.956)">
         <path
            class="text"
            d="m 0,0 h 26.553 v -1.71 c 0,-30.198 0.006,-60.395 -0.009,-90.593 -0.002,-3.797 0.269,-7.551 1.539,-11.152 3.527,-10 10.733,-16.165 20.677,-19.147 3.62,-1.084 7.454,-1.7 11.228,-1.967 6.653,-0.47 13.344,-0.665 19.82,1.534 8.617,2.925 15.379,8.122 19.208,16.493 2.1,4.592 3.62,9.454 5.32,14.226 8.591,24.103 17.214,48.196 25.699,72.338 4.043,11.504 12.101,17.946 23.999,19.685 5.778,0.845 11.55,0.513 17.159,-1.28 8.889,-2.841 14.806,-8.776 17.935,-17.51 5.984,-16.704 11.934,-33.419 17.897,-50.13 4.077,-11.429 8.156,-22.861 12.223,-34.294 3.744,-10.524 11.371,-16.87 21.861,-19.877 3.121,-0.895 6.482,-1.32 9.732,-1.334 25.766,-0.105 51.529,-0.058 77.295,-0.058 8.714,0 15.234,5.345 16.843,13.957 1.143,6.109 0.161,11.789 -3.891,16.721 -3.114,3.793 -7.09,5.714 -12.035,5.706 -14.529,-0.025 -29.059,-0.063 -43.584,0.027 -8.235,0.05 -16.227,1.368 -23.698,5.134 -10.539,5.314 -17.444,13.628 -20.728,24.927 -3.09,10.645 -2.761,21.295 0.882,31.709 4.558,13.045 14.179,20.744 27.193,24.516 5.301,1.536 10.76,2.108 16.259,2.115 28.533,0.03 57.061,0.018 85.591,0.021 h 1.11 v -26.599 h -1.588 c -29.101,0.005 -58.199,-0.08 -87.299,0.069 -9.682,0.048 -16.165,-7.623 -17.517,-14.422 -2.13,-10.679 5.98,-20.863 16.85,-20.913 14.658,-0.067 29.32,0.041 43.979,-0.06 7.871,-0.053 15.539,-1.377 22.772,-4.666 12.347,-5.613 19.561,-15.211 21.785,-28.509 1.499,-8.957 1.446,-17.94 -0.838,-26.776 -3.606,-13.962 -12.881,-22.428 -26.373,-26.649 -5.695,-1.78 -11.566,-2.591 -17.509,-2.606 -24.491,-0.062 -48.983,-0.155 -73.475,0.013 -12.472,0.085 -24.471,2.579 -35.453,8.869 -9.725,5.567 -16.776,13.51 -20.797,23.965 -3.017,7.844 -5.699,15.816 -8.533,23.732 -7.542,21.08 -15.084,42.16 -22.634,63.237 -1.329,3.711 -4.138,5.251 -7.562,4.201 -2.048,-0.627 -3.108,-2.173 -3.78,-4.069 -2.386,-6.731 -4.75,-13.469 -7.148,-20.195 -5.185,-14.533 -10.388,-29.059 -15.58,-43.59 -2.459,-6.885 -4.927,-13.767 -7.366,-20.659 -5.482,-15.485 -16.26,-25.579 -31.57,-31.071 -11.09,-3.979 -22.575,-4.881 -34.233,-4.326 -9.138,0.435 -18.018,2.105 -26.429,5.84 -17.703,7.863 -27.925,21.489 -30.957,40.532 -0.548,3.449 -0.781,6.984 -0.788,10.48 C -0.024,-63.347 0,-32.578 0,-1.811 Z"
            fill="#000000"
            style="fill-opacity:1;fill-rule:evenodd;stroke:none"
         />
      </g>
      <g transform="translate(0,187.9487)">
         <path
            class="logo"
            d="m 0,0 c 0,0 115.688,-22.536 127.66,-24.783 9.879,-1.855 14.263,-9.543 12.644,-18.512 -1.28,-7.087 -27.211,-144.654 -27.211,-144.654 0,0 58.473,46.551 66.663,53.109 7.957,6.373 10.723,17.5 11.127,25.795 0.32,6.574 4.45,92.051 4.653,98.626 0.202,6.574 -6.171,12.543 -12.645,13.859 C 176.417,4.755 79.61,23.569 76.474,24.177 73.339,24.783 70,24.48 67.573,23.67 65.145,22.861 0,0 0,0"
            fill="#2DA0DC"
            style="fill-opacity:1;fill-rule:nonzero;stroke:none"
         />
      </g>
   </g>
</svg>
